<mxfile host="app.diagrams.net" agent="Mozilla/5.0 (Windows NT 10.0; Win64; x64) AppleWebKit/537.36 (KHTML, like Gecko) Chrome/131.0.0.0 Safari/537.36" version="25.0.3">
  <diagram name="第 1 页" id="Rc65ltEtRl_QGEFz1ZBi">
    <mxGraphModel dx="1434" dy="772" grid="1" gridSize="10" guides="1" tooltips="1" connect="1" arrows="1" fold="1" page="1" pageScale="1" pageWidth="827" pageHeight="1169" math="0" shadow="0">
      <root>
        <mxCell id="0" />
        <mxCell id="1" parent="0" />
        <mxCell id="Kr1rpk06MWZGmnqAAeTs-3" style="edgeStyle=orthogonalEdgeStyle;rounded=0;orthogonalLoop=1;jettySize=auto;html=1;exitX=0.5;exitY=1;exitDx=0;exitDy=0;entryX=0.5;entryY=0;entryDx=0;entryDy=0;" edge="1" parent="1" source="Kr1rpk06MWZGmnqAAeTs-1" target="Kr1rpk06MWZGmnqAAeTs-2">
          <mxGeometry relative="1" as="geometry" />
        </mxCell>
        <mxCell id="Kr1rpk06MWZGmnqAAeTs-1" value="generate_sn" style="rounded=0;whiteSpace=wrap;html=1;" vertex="1" parent="1">
          <mxGeometry x="340" y="70" width="120" height="60" as="geometry" />
        </mxCell>
        <mxCell id="Kr1rpk06MWZGmnqAAeTs-14" style="edgeStyle=orthogonalEdgeStyle;rounded=0;orthogonalLoop=1;jettySize=auto;html=1;exitX=0.5;exitY=1;exitDx=0;exitDy=0;entryX=0.5;entryY=0;entryDx=0;entryDy=0;" edge="1" parent="1" source="Kr1rpk06MWZGmnqAAeTs-2" target="Kr1rpk06MWZGmnqAAeTs-8">
          <mxGeometry relative="1" as="geometry" />
        </mxCell>
        <mxCell id="Kr1rpk06MWZGmnqAAeTs-2" value="&lt;span style=&quot;color: rgb(245, 171, 53);&quot;&gt;get&lt;/span&gt; Timestamp, MAC, clock sequence" style="rounded=0;whiteSpace=wrap;html=1;" vertex="1" parent="1">
          <mxGeometry x="340" y="190" width="120" height="60" as="geometry" />
        </mxCell>
        <mxCell id="Kr1rpk06MWZGmnqAAeTs-11" value="" style="edgeStyle=orthogonalEdgeStyle;rounded=0;orthogonalLoop=1;jettySize=auto;html=1;" edge="1" parent="1" source="Kr1rpk06MWZGmnqAAeTs-8" target="Kr1rpk06MWZGmnqAAeTs-10">
          <mxGeometry relative="1" as="geometry" />
        </mxCell>
        <mxCell id="Kr1rpk06MWZGmnqAAeTs-8" value="uuid1 generate(&lt;span style=&quot;color: rgb(245, 171, 53);&quot;&gt;convert&lt;/span&gt; &lt;span style=&quot;color: rgb(245, 171, 53);&quot;&gt;to&lt;/span&gt; &lt;span style=&quot;color: rgb(220, 198, 224);&quot;&gt;string&lt;/span&gt;)" style="rounded=0;whiteSpace=wrap;html=1;" vertex="1" parent="1">
          <mxGeometry x="340" y="310" width="120" height="60" as="geometry" />
        </mxCell>
        <mxCell id="Kr1rpk06MWZGmnqAAeTs-13" value="" style="edgeStyle=orthogonalEdgeStyle;rounded=0;orthogonalLoop=1;jettySize=auto;html=1;" edge="1" parent="1" source="Kr1rpk06MWZGmnqAAeTs-10" target="Kr1rpk06MWZGmnqAAeTs-12">
          <mxGeometry relative="1" as="geometry" />
        </mxCell>
        <mxCell id="Kr1rpk06MWZGmnqAAeTs-10" value="BLAKE2B Hash(input: UUID &lt;span style=&quot;color: rgb(220, 198, 224);&quot;&gt;string&lt;/span&gt;)" style="rounded=0;whiteSpace=wrap;html=1;" vertex="1" parent="1">
          <mxGeometry x="340" y="430" width="120" height="60" as="geometry" />
        </mxCell>
        <mxCell id="Kr1rpk06MWZGmnqAAeTs-18" value="" style="edgeStyle=orthogonalEdgeStyle;rounded=0;orthogonalLoop=1;jettySize=auto;html=1;" edge="1" parent="1" source="Kr1rpk06MWZGmnqAAeTs-12" target="Kr1rpk06MWZGmnqAAeTs-17">
          <mxGeometry relative="1" as="geometry" />
        </mxCell>
        <mxCell id="Kr1rpk06MWZGmnqAAeTs-12" value="get&amp;nbsp;Hash value(e.g., &lt;font color=&quot;#dcc6e0&quot;&gt;generate&lt;/font&gt;&amp;nbsp;&lt;span style=&quot;color: rgb(245, 171, 53);&quot;&gt;10&lt;/span&gt; &lt;span style=&quot;color: rgb(220, 198, 224);&quot;&gt;chars&lt;/span&gt;)" style="rounded=0;whiteSpace=wrap;html=1;" vertex="1" parent="1">
          <mxGeometry x="340" y="555" width="120" height="60" as="geometry" />
        </mxCell>
        <mxCell id="Kr1rpk06MWZGmnqAAeTs-15" value="&lt;span style=&quot;color: rgb(245, 171, 53);&quot;&gt;combine&lt;/span&gt; datalogger sn &lt;span style=&quot;color: rgb(220, 198, 224);&quot;&gt;and&lt;/span&gt; Hash &lt;span style=&quot;color: rgb(245, 171, 53);&quot;&gt;value&lt;/span&gt;" style="rounded=0;whiteSpace=wrap;html=1;" vertex="1" parent="1">
          <mxGeometry x="340" y="780" width="120" height="60" as="geometry" />
        </mxCell>
        <mxCell id="Kr1rpk06MWZGmnqAAeTs-19" style="edgeStyle=orthogonalEdgeStyle;rounded=0;orthogonalLoop=1;jettySize=auto;html=1;exitX=0.5;exitY=1;exitDx=0;exitDy=0;entryX=0.5;entryY=0;entryDx=0;entryDy=0;" edge="1" parent="1" source="Kr1rpk06MWZGmnqAAeTs-17" target="Kr1rpk06MWZGmnqAAeTs-15">
          <mxGeometry relative="1" as="geometry" />
        </mxCell>
        <mxCell id="Kr1rpk06MWZGmnqAAeTs-17" value="&lt;span style=&quot;color: rgb(245, 171, 53);&quot;&gt;convert&lt;/span&gt; Hash &lt;span style=&quot;color: rgb(245, 171, 53);&quot;&gt;value&lt;/span&gt; &lt;span style=&quot;color: rgb(245, 171, 53);&quot;&gt;to&lt;/span&gt; hex &lt;span style=&quot;color: rgb(220, 198, 224);&quot;&gt;string&lt;/span&gt;" style="rounded=0;whiteSpace=wrap;html=1;" vertex="1" parent="1">
          <mxGeometry x="340" y="670" width="120" height="60" as="geometry" />
        </mxCell>
      </root>
    </mxGraphModel>
  </diagram>
</mxfile>
